<?xml version="1.0" encoding="utf-8"?>
<!-- Generator: Adobe Illustrator 21.0.0, SVG Export Plug-In . SVG Version: 6.00 Build 0)  -->
<svg version="1.1" id="Layer_1" xmlns="http://www.w3.org/2000/svg" xmlns:xlink="http://www.w3.org/1999/xlink" x="0px" y="0px"
	 viewBox="0 0 2000 2000" style="enable-background:new 0 0 2000 2000;" xml:space="preserve">
<style type="text/css">
	.st0{fill:#10A9E0;}
	.st1{fill:#ffffff;}
</style>
<g>
	<path class="st1" d="M666.7,1390.9h-80.5l-15.4,37.2h-41.1l77.3-173.4h39.6l77.5,173.4h-42.1L666.7,1390.9z M654.1,1360.5l-27.5-66.4
		l-27.5,66.4H654.1z"/>
	<path class="st1" d="M805.5,1360l-23.3,24.3v43.9h-39.9v-173.4h39.9v81l76.8-81h44.6l-71.9,77.3l76.1,96.1H861L805.5,1360z"/>
	<path class="st1" d="M1036.1,1428.1l-33.4-48.3h-2h-34.9v48.3h-40.1v-173.4h75.1c46.3,0,75.3,24,75.3,62.9c0,26-13.1,45.1-35.7,54.8l38.9,55.7
		H1036.1z M998.5,1287.4h-32.7v60.5h32.7c24.5,0,36.9-11.4,36.9-30.2C1035.4,1298.5,1023,1287.4,998.5,1287.4z"/>
	<path class="st1" d="M1222,1390.9h-80.5l-15.4,37.2h-41.1l77.3-173.4h39.6l77.5,173.4h-42.1L1222,1390.9z M1209.3,1360.5l-27.5-66.4l-27.5,66.4
		H1209.3z"/>
	<path class="st1" d="M1455.3,1428.1l-0.2-104.1l-51,85.7H1386l-50.8-83.5v101.8h-37.7v-173.4h33.2l64.9,107.8l63.9-107.8h33l0.5,173.4H1455.3z"
		/>
</g>
<g>
	<path class="st0" d="M1021.6,538.2c-171.4,0-310.9,139.4-310.9,310.9c0,41.4,8.2,81,22.9,117.1c5.1,12.3,10.8,24.2,17.3,35.6
		c1.6,2.7,3.2,5.5,4.9,8.2c14.4,23.9,32,45.7,52.2,64.8c2.2,2,4.4,4.1,6.7,6.1l5.3-6.1l54.4-62.6c-2.2-2-4.5-4.1-6.6-6.2
		c-20.2-19.8-36.5-43.4-47.8-69.8c-1.4-3.1-2.7-6.2-3.9-9.4c-5.2-13.6-9-27.8-11.4-42.5c-1.9-11.4-2.9-23.3-2.9-35.3
		c0-121.2,98.6-219.9,219.9-219.9s219.9,98.6,219.9,219.9c0,12-1,23.8-2.9,35.3l19.3,22.1l7.7,9l44,50.6
		c14.8-36.2,22.9-75.7,22.9-117C1332.5,677.6,1193,538.2,1021.6,538.2z M1223.5,936.2c-1.4,3-2.7,6.1-4.2,9
		c-12.4,25.5-29.6,48.1-50.4,66.9c-2.2,2.1-4.5,4.1-6.8,6c-9.4,7.8-19.4,14.9-30,20.9c-32.5,19-70.2,29.9-110.4,29.9
		c-40.2,0-78-10.8-110.5-29.9l-2.5,2.9l-54.4,62.8l-3.4,3.9c49.1,32.5,107.7,51.3,170.8,51.3c63,0,121.7-18.9,170.7-51.3
		c10.2-6.7,19.9-14,29.3-21.8c2.3-1.9,4.5-3.9,6.8-6c20.7-18.3,38.9-39.4,54-62.8c1.7-2.7,3.4-5.3,5-8l-56.2-64.7L1223.5,936.2z"/>
	<path class="st0" d="M1287.5,1009.9c-1.6,2.7-3.3,5.4-5,8c-15.1,23.4-33.3,44.5-54,62.8l-54.4-62.6l-5.2-6l-147.2-169.7
		l-141.9,163.5l-5.4,6.2l-54.4,62.6l-5.3,6.1c-2.3-2-4.5-4-6.7-6.1c-20.2-19.1-37.8-40.9-52.2-64.8l7.1-8.2l56.9-65.6l8.1-9.4
		l133.4-153.7l60.3-69.4l60.2,69.4l141.6,163.2l7.8,9L1287.5,1009.9z"/>
</g>
</svg>
